<svg width="95" height="94" viewBox="0 0 95 94" fill="none" xmlns="http://www.w3.org/2000/svg">
<path d="M62.2099 13.1737L63.0206 15.3396L63.8314 13.1737C64.17 12.2692 64.6987 11.4478 65.3818 10.7651C66.0648 10.0823 66.8865 9.55405 67.7911 9.21592L69.9453 8.40517L67.7911 7.59442C66.8871 7.25537 66.0663 6.72651 65.3839 6.04345C64.7015 5.3604 64.1734 4.53902 63.8353 3.63467L63.0246 1.46875L62.2099 3.63467C61.8717 4.53902 61.3437 5.3604 60.6613 6.04345C59.9789 6.72651 59.1581 7.25537 58.2541 7.59442L56.0881 8.40517L58.2541 9.21592C59.158 9.55452 59.9789 10.083 60.6612 10.7657C61.3436 11.4485 61.8717 12.2696 62.2099 13.1737Z" fill="url(#paint0_linear_22_3479)"/>
<path d="M77.2438 21.1382L77.8568 22.7793L78.4639 21.1382C78.7203 20.4521 79.121 19.8291 79.6389 19.3111C80.1568 18.7932 80.7799 18.3925 81.466 18.1361L83.1071 17.5212L81.466 16.9063C80.7799 16.6499 80.1568 16.2492 79.6389 15.7313C79.121 15.2133 78.7203 14.5903 78.4639 13.9042L77.8489 12.2631L77.236 13.9042C76.979 14.59 76.5781 15.2127 76.0603 15.7306C75.5424 16.2484 74.9197 16.6493 74.2339 16.9063L72.5908 17.5212L74.2339 18.1361C74.9211 18.3921 75.5454 18.7926 76.0647 19.3105C76.5839 19.8284 76.986 20.4517 77.2438 21.1382Z" fill="url(#paint1_linear_22_3479)"/>
<path d="M86.4186 12.0202L87.0316 13.6633L87.6465 12.0202C87.9034 11.3345 88.3043 10.7117 88.8222 10.1938C89.34 9.67597 89.9628 9.27507 90.6486 9.01812L92.2897 8.40516L90.6486 7.79024C89.9625 7.53385 89.3394 7.13315 88.8215 6.61523C88.3036 6.0973 87.9029 5.47423 87.6465 4.78812L87.0316 3.14703L86.4186 4.78812C86.1617 5.47391 85.7608 6.09669 85.2429 6.61454C84.7251 7.13239 84.1023 7.53329 83.4165 7.79024L81.7734 8.40516L83.4165 9.01812C84.1019 9.27574 84.7243 9.67687 85.2421 10.1946C85.7598 10.7124 86.161 11.3348 86.4186 12.0202Z" fill="url(#paint2_linear_22_3479)"/>
<path d="M78.231 86.4663V90.5455C78.231 90.8071 78.2826 91.0661 78.383 91.3077C78.4834 91.5492 78.6306 91.7686 78.816 91.9531C79.0015 92.1376 79.2215 92.2837 79.4636 92.3829C79.7056 92.4821 79.9649 92.5325 80.2265 92.5313H87.864C88.3906 92.5313 88.8957 92.322 89.2681 91.9496C89.6405 91.5772 89.8497 91.0722 89.8497 90.5455V82.6828C88.5891 83.9494 87.0787 84.9399 85.4145 85.5913C83.7504 86.2427 81.9689 86.5406 80.1834 86.4663H78.231Z" fill="url(#paint3_linear_22_3479)"/>
<path d="M4.30566 82.5673V90.5455C4.30566 91.0722 4.51488 91.5773 4.88728 91.9497C5.25968 92.3221 5.76476 92.5313 6.29141 92.5313H13.9289C14.4556 92.5313 14.9607 92.3221 15.3331 91.9497C15.7055 91.5773 15.9147 91.0722 15.9147 90.5455V86.4663H14.0836C12.2708 86.5445 10.462 86.2374 8.77653 85.5653C7.09107 84.8932 5.56727 83.8714 4.30566 82.5673Z" fill="url(#paint4_linear_22_3479)"/>
<path d="M4.36255 74.6125C4.36255 80.2408 8.27921 83.521 14.0837 83.521H80.1794C85.9761 83.521 89.9006 80.2408 89.9006 74.6125V72.9871H4.36255V74.6125Z" fill="url(#paint5_linear_22_3479)"/>
<path d="M90.8015 38.3833L85.9057 37.5334C85.5147 37.4651 85.112 37.5309 84.763 37.72C84.414 37.909 84.139 38.2104 83.9826 38.5753L82.459 42.02L81.8402 41.076L77.5475 30.9417C76.8552 29.2976 75.7557 27.8568 74.3528 26.755C72.9498 25.6532 71.2895 24.9266 69.5282 24.6437C62.1161 23.5183 54.6276 22.9716 47.1307 23.0085C39.6343 22.9734 32.1465 23.5221 24.7352 24.6495C22.9722 24.9311 21.3099 25.6571 19.9052 26.759C18.5004 27.8608 17.3994 29.3023 16.706 30.9475L12.4232 41.0663L11.8141 41.9965L10.2808 38.5655C10.1244 38.2006 9.84938 37.8993 9.50036 37.7102C9.15134 37.5211 8.7487 37.4554 8.35767 37.5236L3.45988 38.3833C3.00743 38.4565 2.59586 38.6885 2.29904 39.0377C2.00222 39.3869 1.83959 39.8305 1.84033 40.2888V41.2503C1.84043 41.6916 1.99137 42.1196 2.26813 42.4634C2.5449 42.8071 2.93084 43.0459 3.36196 43.1401L10.0673 44.6735L6.85563 49.5693C5.23026 52.0481 4.36446 54.9477 4.36463 57.9118V70.0535H89.9007V57.9118C89.9002 54.9475 89.0337 52.0479 87.4078 49.5693L84.1843 44.65L90.9014 43.1362C91.3325 43.042 91.7185 42.8032 91.9952 42.4595C92.272 42.1157 92.423 41.6877 92.423 41.2464V40.2849C92.4228 39.8269 92.2595 39.3841 91.9623 39.0356C91.6652 38.6872 91.2537 38.4559 90.8015 38.3833ZM19.4183 32.0951C19.9131 30.9069 20.7041 29.8653 21.7157 29.0696C22.7274 28.2739 23.9261 27.7507 25.1974 27.5498C32.4559 26.4482 39.7891 25.9119 47.1307 25.946C54.4723 25.9119 61.8055 26.4482 69.064 27.5498C70.3344 27.7513 71.532 28.2746 72.5429 29.0699C73.5538 29.8652 74.3443 30.906 74.8392 32.0932L78.139 39.8756H16.1185L19.4183 32.0951ZM13.1889 60.491C12.6132 60.407 12.076 60.1522 11.6468 59.7593C11.2177 59.3665 10.9164 58.8539 10.7821 58.2878C10.6051 57.6277 10.5356 56.9432 10.5765 56.261C10.7351 54.4985 11.2893 53.6309 12.4095 53.6309C12.4095 53.6309 20.09 54.1088 21.128 54.428C22.1659 54.7472 26.1491 62.32 26.1491 62.32L13.1889 60.491ZM62.39 63.4285L47.0367 64.3058L31.8714 63.45L28.0037 55.2465C28.0037 55.2465 41.6278 56.4333 47.1288 56.4333C52.6297 56.4333 66.2578 55.2465 66.2578 55.2465L62.39 63.4285ZM83.4774 58.2957C83.343 58.8617 83.0418 59.3744 82.6126 59.7672C82.1835 60.16 81.6463 60.4149 81.0706 60.4988L68.1103 62.3279C68.1103 62.3279 72.0956 54.755 73.1335 54.4358C74.1714 54.1166 81.85 53.6388 81.85 53.6388C82.9721 53.6388 83.5244 54.5141 83.683 56.2688C83.7238 56.9511 83.6544 57.6355 83.4774 58.2957Z" fill="url(#paint6_linear_22_3479)"/>
<defs>
<linearGradient id="paint0_linear_22_3479" x1="69.3646" y1="1.46875" x2="53.4365" y2="9.74164" gradientUnits="userSpaceOnUse">
<stop stop-color="#F8D65F"/>
<stop offset="0.507379" stop-color="#FEEA9A"/>
<stop offset="1" stop-color="#FFCD4E"/>
</linearGradient>
<linearGradient id="paint1_linear_22_3479" x1="82.6664" y1="12.2631" x2="70.5836" y2="18.545" gradientUnits="userSpaceOnUse">
<stop stop-color="#F8D65F"/>
<stop offset="0.507379" stop-color="#FEEA9A"/>
<stop offset="1" stop-color="#FFCD4E"/>
</linearGradient>
<linearGradient id="paint2_linear_22_3479" x1="91.849" y1="3.14703" x2="79.7662" y2="9.42892" gradientUnits="userSpaceOnUse">
<stop stop-color="#F8D65F"/>
<stop offset="0.507379" stop-color="#FEEA9A"/>
<stop offset="1" stop-color="#FFCD4E"/>
</linearGradient>
<linearGradient id="paint3_linear_22_3479" x1="89.3629" y1="82.6828" x2="77.0406" y2="90.2407" gradientUnits="userSpaceOnUse">
<stop stop-color="#F8D65F"/>
<stop offset="0.507379" stop-color="#FEEA9A"/>
<stop offset="1" stop-color="#FFCD4E"/>
</linearGradient>
<linearGradient id="paint4_linear_22_3479" x1="15.4282" y1="82.5673" x2="3.03261" y2="90.0757" gradientUnits="userSpaceOnUse">
<stop stop-color="#F8D65F"/>
<stop offset="0.507379" stop-color="#FEEA9A"/>
<stop offset="1" stop-color="#FFCD4E"/>
</linearGradient>
<linearGradient id="paint5_linear_22_3479" x1="86.3163" y1="72.9871" x2="79.6837" y2="100.988" gradientUnits="userSpaceOnUse">
<stop stop-color="#F8D65F"/>
<stop offset="0.507379" stop-color="#FEEA9A"/>
<stop offset="1" stop-color="#FFCD4E"/>
</linearGradient>
<linearGradient id="paint6_linear_22_3479" x1="88.6273" y1="23.0067" x2="22.5895" y2="89.1109" gradientUnits="userSpaceOnUse">
<stop stop-color="#F8D65F"/>
<stop offset="0.507379" stop-color="#FEEA9A"/>
<stop offset="1" stop-color="#FFCD4E"/>
</linearGradient>
</defs>
</svg>
