<svg width="41" height="28" viewBox="0 0 41 28" fill="none" xmlns="http://www.w3.org/2000/svg">
<path d="M7.6875 6.5882H4.27081C3.79931 6.5882 3.41661 6.95717 3.41661 7.41176C3.41661 7.86635 3.79931 8.23531 4.27081 8.23531H7.6875C8.159 8.23531 8.54169 7.86635 8.54169 7.41176C8.54169 6.95717 8.159 6.5882 7.6875 6.5882Z" fill="url(#paint0_linear_22_863)"/>
<path d="M34.9816 8.81011C34.8192 8.31761 31.5597 1.65861 30.34 0.943764C29.0707 0.199268 21.4772 0 20.5 0C19.5228 0 11.9293 0.199268 10.66 0.943764C9.44025 1.65691 6.18075 8.31761 6.01843 8.81011C5.87493 9.24331 6.12606 9.70608 6.57538 9.84443C7.02982 9.98117 7.50644 9.74067 7.64818 9.30747C7.91636 8.48886 10.8786 2.91521 11.5295 2.3618C12.2522 2.02912 17.5736 1.64703 20.5 1.64703C23.4264 1.64703 28.7478 2.02912 29.4107 2.32235C30.1196 2.91529 33.0836 8.48893 33.3518 9.30755C33.468 9.65837 33.8045 9.88234 34.1667 9.88234C34.2521 9.88234 34.3393 9.87084 34.4264 9.84443C34.8739 9.70608 35.1251 9.24323 34.9816 8.81011Z" fill="url(#paint1_linear_22_863)"/>
<path d="M7.6875 23.0588C7.28775 23.0588 6.96656 23.3289 6.87431 23.6863L1.70831 22.4411V22.2352C1.70831 21.7806 1.32561 21.4116 0.854113 21.4116C0.382613 21.4116 0 21.7807 0 22.2353V25.5294C0 26.8916 1.14968 28 2.5625 28H5.97919C7.39201 28 8.54169 26.8916 8.54169 25.5294V23.8823C8.54169 23.4277 8.159 23.0588 7.6875 23.0588Z" fill="url(#paint2_linear_22_863)"/>
<path d="M40.1458 21.4117C39.6743 21.4117 39.2916 21.7807 39.2916 22.2353V22.4412L34.1256 23.6864C34.0334 23.329 33.7122 23.0588 33.3124 23.0588C32.8409 23.0588 32.4582 23.4278 32.4582 23.8824V25.5294C32.4582 26.8916 33.6079 28 35.0207 28H38.4375C39.8503 28 41 26.8916 41 25.5294V22.2353C41 21.7807 40.6173 21.4117 40.1458 21.4117Z" fill="url(#paint3_linear_22_863)"/>
<path d="M36.7292 6.5882H33.3125C32.841 6.5882 32.4583 6.95717 32.4583 7.41176C32.4583 7.86635 32.841 8.23531 33.3125 8.23531H36.7292C37.2007 8.23531 37.5834 7.86635 37.5834 7.41176C37.5834 6.95717 37.2007 6.5882 36.7292 6.5882Z" fill="url(#paint4_linear_22_863)"/>
<path d="M40.9334 14.3573L38.6032 14.807C38.3162 14.8498 32.5796 15.647 31.1258 15.647C30.9174 15.8067 30.7295 16.8641 30.7517 17.8541C35.9587 17.6169 40.0126 17.3023 40.0775 17.2973L40.9983 17.1771C40.9966 16.0851 40.9795 15.1529 40.9334 14.3573Z" fill="url(#paint5_linear_22_863)"/>
<path d="M39.5326 10.7372C39.1499 10.6301 38.95 10.3616 38.5708 9.81479L38.2786 9.40305C37.7678 8.71623 36.7804 8.68658 35.8254 8.66025C35.5384 8.65199 35.084 8.63887 34.8687 8.59108C34.7953 8.48731 34.6962 8.39999 34.5766 8.33746C32.9828 7.49244 26.9438 6.5882 20.5 6.5882C14.0562 6.5882 8.01718 7.49244 6.42331 8.33738C6.30375 8.39999 6.20461 8.48723 6.1295 8.5927C5.91425 8.64049 5.45981 8.65361 5.17281 8.66187C4.21956 8.6882 3.23211 8.71623 2.72138 9.40305L2.42925 9.81649C2.05 10.3633 1.85012 10.6318 1.46743 10.7389C0.797738 10.9283 0.4305 11.5904 0.227182 12.7944L1.91499 13.2012C1.94229 13.2012 7.51493 14 9.39581 14C10.0416 14 10.6104 14.2372 11.0409 14.6852C11.9464 15.629 11.9891 17.2827 11.9669 17.9266C14.7156 18.037 17.6829 18.1177 20.5 18.1177C23.3204 18.1177 26.2896 18.0371 29.0417 17.9266C29.0229 17.1987 29.0656 15.3754 29.9113 14.5139C30.2427 14.1779 30.6612 14 31.1259 14C32.2312 14 36.6916 13.412 38.3163 13.1847L40.7609 12.712C40.5558 11.5574 40.1886 10.9216 39.5326 10.7372ZM26.4792 16.4705H14.5208C14.0493 16.4705 13.6666 16.1016 13.6666 15.647C13.6666 15.1924 14.0493 14.8234 14.5208 14.8234H26.4791C26.9506 14.8234 27.3333 15.1924 27.3333 15.647C27.3333 16.1016 26.9507 16.4705 26.4792 16.4705Z" fill="url(#paint6_linear_22_863)"/>
<path d="M40.2586 18.9346C40.1099 18.9461 29.5405 19.7647 20.5 19.7647C11.4595 19.7647 0.890068 18.9461 0.785807 18.9395L0.0443633 18.8654C0.136613 20.6525 0.421932 23.3322 1.30679 23.7868C2.2293 24.2595 12.9012 24.7059 20.4999 24.7059C28.0986 24.7059 38.7705 24.2595 39.6914 23.7852C40.5797 23.329 40.865 20.6311 40.9556 18.844L40.2586 18.9346Z" fill="url(#paint7_linear_22_863)"/>
<path d="M9.78531 15.8019C9.67936 15.6915 9.56661 15.6471 9.39581 15.6471C7.38 15.6471 1.81761 14.8482 1.58186 14.8153L0.0597383 14.4497C0.0170566 15.2303 0.00168164 16.1444 0 17.2035L0.941318 17.2973C0.996012 17.3023 5.04812 17.6152 10.2551 17.8541C10.2722 17.2595 10.1902 16.2235 9.78531 15.8019Z" fill="url(#paint8_linear_22_863)"/>
<defs>
<linearGradient id="paint0_linear_22_863" x1="39.282" y1="-7.57444e-08" x2="1.39732" y2="28.841" gradientUnits="userSpaceOnUse">
<stop stop-color="#F8D65F"/>
<stop offset="0.507379" stop-color="#FEEA9A"/>
<stop offset="1" stop-color="#FFCD4E"/>
</linearGradient>
<linearGradient id="paint1_linear_22_863" x1="39.282" y1="-7.57444e-08" x2="1.39732" y2="28.841" gradientUnits="userSpaceOnUse">
<stop stop-color="#F8D65F"/>
<stop offset="0.507379" stop-color="#FEEA9A"/>
<stop offset="1" stop-color="#FFCD4E"/>
</linearGradient>
<linearGradient id="paint2_linear_22_863" x1="39.282" y1="-7.57444e-08" x2="1.39732" y2="28.841" gradientUnits="userSpaceOnUse">
<stop stop-color="#F8D65F"/>
<stop offset="0.507379" stop-color="#FEEA9A"/>
<stop offset="1" stop-color="#FFCD4E"/>
</linearGradient>
<linearGradient id="paint3_linear_22_863" x1="39.282" y1="-7.57444e-08" x2="1.39732" y2="28.841" gradientUnits="userSpaceOnUse">
<stop stop-color="#F8D65F"/>
<stop offset="0.507379" stop-color="#FEEA9A"/>
<stop offset="1" stop-color="#FFCD4E"/>
</linearGradient>
<linearGradient id="paint4_linear_22_863" x1="39.282" y1="-7.57444e-08" x2="1.39732" y2="28.841" gradientUnits="userSpaceOnUse">
<stop stop-color="#F8D65F"/>
<stop offset="0.507379" stop-color="#FEEA9A"/>
<stop offset="1" stop-color="#FFCD4E"/>
</linearGradient>
<linearGradient id="paint5_linear_22_863" x1="39.282" y1="-7.57444e-08" x2="1.39732" y2="28.841" gradientUnits="userSpaceOnUse">
<stop stop-color="#F8D65F"/>
<stop offset="0.507379" stop-color="#FEEA9A"/>
<stop offset="1" stop-color="#FFCD4E"/>
</linearGradient>
<linearGradient id="paint6_linear_22_863" x1="39.282" y1="-7.57444e-08" x2="1.39732" y2="28.841" gradientUnits="userSpaceOnUse">
<stop stop-color="#F8D65F"/>
<stop offset="0.507379" stop-color="#FEEA9A"/>
<stop offset="1" stop-color="#FFCD4E"/>
</linearGradient>
<linearGradient id="paint7_linear_22_863" x1="39.282" y1="-7.57444e-08" x2="1.39732" y2="28.841" gradientUnits="userSpaceOnUse">
<stop stop-color="#F8D65F"/>
<stop offset="0.507379" stop-color="#FEEA9A"/>
<stop offset="1" stop-color="#FFCD4E"/>
</linearGradient>
<linearGradient id="paint8_linear_22_863" x1="39.282" y1="-7.57444e-08" x2="1.39732" y2="28.841" gradientUnits="userSpaceOnUse">
<stop stop-color="#F8D65F"/>
<stop offset="0.507379" stop-color="#FEEA9A"/>
<stop offset="1" stop-color="#FFCD4E"/>
</linearGradient>
</defs>
</svg>
