<svg width="44" height="30" viewBox="0 0 44 30" fill="none" xmlns="http://www.w3.org/2000/svg">
<path fill-rule="evenodd" clip-rule="evenodd" d="M4.23077 0C1.89418 0 0 1.84837 0 4.12844V25.8716C0 28.1516 1.89418 30 4.23077 30H39.7692C42.1058 30 44 28.1516 44 25.8716V4.12844C44 1.84837 42.1058 0 39.7692 0H4.23077ZM14.2718 22.789C14.347 22.422 14.3846 22.1284 14.3846 21.9083V8.17431C14.3846 7.97248 14.347 7.68807 14.2718 7.3211C14.1966 6.93578 13.9991 6.55963 13.6795 6.19266C13.3598 5.82569 12.8803 5.51376 12.241 5.25688C11.6017 4.98165 10.7179 4.84404 9.58974 4.84404C8.46154 4.84404 7.57778 4.98165 6.93846 5.25688C6.29915 5.51376 5.81966 5.82569 5.5 6.19266C5.18034 6.55963 4.98291 6.93578 4.90769 7.3211C4.83248 7.68807 4.79487 7.97248 4.79487 8.17431V21.9083C4.79487 22.1101 4.83248 22.4037 4.90769 22.789C4.98291 23.156 5.18034 23.5229 5.5 23.8899C5.81966 24.2569 6.29915 24.578 6.93846 24.8532C7.57778 25.1101 8.46154 25.2385 9.58974 25.2385C10.7179 25.2385 11.6017 25.1101 12.241 24.8532C12.8803 24.578 13.3598 24.2569 13.6795 23.8899C13.9991 23.5229 14.1966 23.156 14.2718 22.789ZM26.7949 21.9083C26.7949 22.1284 26.7573 22.422 26.6821 22.789C26.6068 23.156 26.4094 23.5229 26.0897 23.8899C25.7701 24.2569 25.2906 24.578 24.6513 24.8532C24.012 25.1101 23.1282 25.2385 22 25.2385C20.8718 25.2385 19.988 25.1101 19.3487 24.8532C18.7094 24.578 18.2299 24.2569 17.9103 23.8899C17.5906 23.5229 17.3932 23.156 17.3179 22.789C17.2427 22.4037 17.2051 22.1101 17.2051 21.9083V8.17431C17.2051 7.97248 17.2427 7.68807 17.3179 7.3211C17.3932 6.93578 17.5906 6.55963 17.9103 6.19266C18.2299 5.82569 18.7094 5.51376 19.3487 5.25688C19.988 4.98165 20.8718 4.84404 22 4.84404C23.1282 4.84404 24.012 4.98165 24.6513 5.25688C25.2906 5.51376 25.7701 5.82569 26.0897 6.19266C26.4094 6.55963 26.6068 6.93578 26.6821 7.3211C26.7573 7.68807 26.7949 7.97248 26.7949 8.17431V21.9083ZM39.0923 22.789C39.1675 22.4037 39.2051 22.1101 39.2051 21.9083V8.20183C39.2051 8 39.1675 7.7156 39.0923 7.34862C39.0171 6.9633 38.8197 6.58716 38.5 6.22018C38.1803 5.85321 37.7009 5.53211 37.0615 5.25688C36.4222 4.98165 35.5385 4.84404 34.4103 4.84404C33.2821 4.84404 32.3983 4.98165 31.759 5.25688C31.1197 5.51376 30.6402 5.82569 30.3205 6.19266C30.0009 6.55963 29.8034 6.93578 29.7282 7.3211C29.653 7.68807 29.6154 7.98165 29.6154 8.20183V15.2202C29.6154 15.8991 29.8316 16.5321 30.2641 17.1193C30.6966 17.7064 31.4487 18.1468 32.5205 18.4404C32.5957 18.4771 32.6521 18.4954 32.6897 18.4954C33.0282 18.6239 33.3855 18.7523 33.7615 18.8807C34.1376 19.0092 34.4761 19.1193 34.7769 19.211C34.9086 19.2477 35.059 19.3028 35.2282 19.3761C35.4162 19.4312 35.5667 19.4771 35.6795 19.5138C36.1684 19.6789 36.4786 19.9083 36.6103 20.2018C36.7419 20.4954 36.8077 20.7615 36.8077 21V21.4679C36.8077 21.633 36.7795 21.8165 36.7231 22.0183C36.6855 22.2018 36.5821 22.3853 36.4128 22.5688C36.2624 22.7339 36.0274 22.8807 35.7077 23.0092C35.4068 23.1193 34.9932 23.1743 34.4667 23.1743C33.9402 23.1743 33.5077 23.1193 33.1692 23.0092C32.8496 22.8807 32.5957 22.7339 32.4077 22.5688C32.2385 22.4037 32.1256 22.2294 32.0692 22.0459C32.0128 21.844 31.9846 21.6697 31.9846 21.5229C31.9846 21.3557 31.8491 21.2202 31.6819 21.2202H30.8H30.3035C29.9234 21.2202 29.6154 21.5282 29.6154 21.9083C29.6154 22.1284 29.653 22.422 29.7282 22.789C29.8034 23.156 30.0009 23.5229 30.3205 23.8899C30.6402 24.2569 31.1197 24.578 31.759 24.8532C32.3983 25.1101 33.2821 25.2385 34.4103 25.2385C35.5385 25.2385 36.4222 25.1101 37.0615 24.8532C37.7009 24.578 38.1803 24.2569 38.5 23.8899C38.8197 23.5229 39.0171 23.156 39.0923 22.789Z" fill="url(#paint0_linear_22_3438)"/>
<defs>
<linearGradient id="paint0_linear_22_3438" x1="42.1563" y1="-8.11547e-08" x2="1.54806" y2="30.9646" gradientUnits="userSpaceOnUse">
<stop stop-color="#F8D65F"/>
<stop offset="0.507379" stop-color="#FEEA9A"/>
<stop offset="1" stop-color="#FFCD4E"/>
</linearGradient>
</defs>
</svg>
