<svg width="13" height="8" viewBox="0 0 13 8" fill="none" xmlns="http://www.w3.org/2000/svg">
<path d="M7.42549 7.62109L12.6578 2.25491C12.8827 2.00824 13.0053 1.68156 12.9998 1.34384C12.9943 1.00613 12.8611 0.683818 12.6284 0.444984C12.3956 0.206149 12.0815 0.0694866 11.7523 0.063856C11.4232 0.0582255 11.1048 0.184068 10.8644 0.414808L6.52879 4.85635L2.19545 0.412508C2.07919 0.284988 1.93912 0.182768 1.78356 0.111932C1.62801 0.0410961 1.46015 0.0030918 1.28999 0.000180917C1.11983 -0.00272997 0.950833 0.029512 0.793064 0.094988C0.635295 0.160464 0.491975 0.257836 0.371634 0.381309C0.251294 0.504782 0.156393 0.651832 0.0925779 0.813708C0.0287628 0.975585 -0.00266075 1.14898 0.00017643 1.32357C0.00301361 1.49816 0.0400534 1.67039 0.109092 1.82999C0.17813 1.9896 0.277758 2.13332 0.402042 2.25261L5.63208 7.62109C5.87057 7.86381 6.19288 8 6.52879 8C6.8647 8 7.187 7.86381 7.42549 7.62109Z" fill="#B8B8B8"/>
</svg>
