<svg width="85" height="92" viewBox="0 0 85 92" fill="none" xmlns="http://www.w3.org/2000/svg">
<path d="M82.8888 12.876C82.7218 11.6899 81.8591 10.7141 80.6928 10.3934L43.3145 0.110283C42.7817 -0.0364356 42.2188 -0.0364356 41.6855 0.110283L4.30723 10.3934C3.14098 10.7141 2.27825 11.6895 2.11129 12.876C1.8945 14.4182 -3.05132 50.8558 9.63437 68.9824C22.3051 87.0874 40.997 91.727 41.7864 91.9158C42.0211 91.972 42.2601 91.9996 42.5 91.9996C42.7399 91.9996 42.979 91.9716 43.2136 91.9158C44.0034 91.727 62.6954 87.0874 75.3657 68.9824C88.0514 50.8562 83.1056 14.4186 82.8888 12.876ZM66.6043 34.1487L41.1085 59.3703C40.5152 59.9572 39.7372 60.251 38.9596 60.251C38.1819 60.251 37.4039 59.9576 36.8106 59.3703L21.0468 43.776C20.4767 43.2124 20.1565 42.4475 20.1565 41.6502C20.1565 40.8529 20.4771 40.088 21.0468 39.5244L24.1768 36.428C25.3637 35.2543 27.2882 35.2539 28.4747 36.428L38.9596 46.8002L59.1764 26.8003C59.7462 26.2363 60.5193 25.9196 61.3253 25.9196C62.1313 25.9196 62.9045 26.2363 63.4743 26.8003L66.6043 29.8966C67.7912 31.0708 67.7912 32.9745 66.6043 34.1487Z" fill="url(#paint0_linear_22_3497)"/>
<defs>
<linearGradient id="paint0_linear_22_3497" x1="80.5378" y1="0.000243892" x2="-18.7842" y2="46.6059" gradientUnits="userSpaceOnUse">
<stop stop-color="#F8D65F"/>
<stop offset="0.507379" stop-color="#FEEA9A"/>
<stop offset="1" stop-color="#FFCD4E"/>
</linearGradient>
</defs>
</svg>
