<svg width="16" height="17" viewBox="0 0 16 17" fill="none" xmlns="http://www.w3.org/2000/svg">
<path d="M15.625 12.4535C15.388 12.2777 12.7842 10.4556 12.4644 10.2496C12.3245 10.1608 12.1559 10.1156 11.9714 10.1156C11.7344 10.1156 11.4703 10.1876 11.2126 10.33C10.9629 10.469 10.2026 10.9245 9.83199 11.1472C9.50432 10.9044 8.73606 10.2847 7.5256 9.00862C6.32151 7.74589 5.72822 6.92863 5.49599 6.58196C5.70754 6.19175 6.14018 5.39292 6.27061 5.12999C6.51875 4.63427 6.54738 4.13856 6.34537 3.80529C6.15609 3.49045 4.43187 0.73722 4.25372 0.47764C4.08671 0.233132 3.78609 0.10083 3.46001 0.10083C3.20233 0.10083 2.93034 0.182891 2.69334 0.355386C2.69226 0.356357 2.6859 0.361348 2.67477 0.370083C2.45544 0.542247 0.383644 2.16848 0.412406 3.11364C0.496708 5.9037 3.0719 9.18279 5.21604 11.442C7.36018 13.7012 10.4746 16.4142 13.1357 16.5029H13.1579C14.0885 16.5029 15.7252 14.1249 15.7411 14.1014C16.1737 13.4533 16.0163 12.7432 15.625 12.4535ZM14.9537 13.5035C14.3366 14.4029 13.4633 15.3424 13.1198 15.478C11.2969 15.3876 8.73765 13.6995 5.90637 10.7185C3.07508 7.73584 1.47334 5.04625 1.38745 3.13206C1.50993 2.76864 2.40226 1.84253 3.25005 1.19777C3.31208 1.15255 3.39002 1.12575 3.4616 1.12575C3.47751 1.12575 3.49023 1.12743 3.50137 1.13078C3.77495 1.54778 5.24308 3.88903 5.50871 4.32445C5.5103 4.37134 5.49599 4.4869 5.41169 4.65437C5.32102 4.83189 5.04585 5.34937 4.65138 6.0762L4.34598 6.64058L4.70069 7.17313C4.96473 7.56837 5.59461 8.42749 6.83687 9.73544C8.0855 11.0501 8.8983 11.7099 9.27209 11.9863L9.77791 12.3597L10.3139 12.0382C10.8325 11.725 11.4608 11.3515 11.6644 11.2377C11.8282 11.1455 11.9395 11.1389 11.9698 11.1389C11.9761 11.1389 11.9793 11.1389 11.9841 11.1405C12.3547 11.385 14.6261 12.9727 15.0269 13.2607C15.0333 13.3043 15.0269 13.393 14.9537 13.5035Z" fill="white"/>
<path d="M15.625 12.4535C15.388 12.2777 12.7842 10.4556 12.4644 10.2496C12.3245 10.1608 12.1559 10.1156 11.9714 10.1156C11.7344 10.1156 11.4703 10.1876 11.2126 10.33C10.9629 10.469 10.2026 10.9245 9.83199 11.1472C9.50432 10.9044 8.73606 10.2847 7.5256 9.00862C6.32151 7.74589 5.72822 6.92863 5.49599 6.58196C5.70754 6.19175 6.14018 5.39292 6.27061 5.12999C6.51875 4.63427 6.54738 4.13856 6.34537 3.80529C6.15609 3.49045 4.43187 0.73722 4.25372 0.47764C4.08671 0.233132 3.78609 0.10083 3.46001 0.10083C3.20233 0.10083 2.93034 0.182891 2.69334 0.355386C2.69226 0.356357 2.6859 0.361348 2.67477 0.370083C2.45544 0.542247 0.383644 2.16848 0.412406 3.11364C0.496708 5.9037 3.0719 9.18279 5.21604 11.442C7.36018 13.7012 10.4746 16.4142 13.1357 16.5029H13.1579C14.0885 16.5029 15.7252 14.1249 15.7411 14.1014C16.1737 13.4533 16.0163 12.7432 15.625 12.4535ZM14.9537 13.5035C14.3366 14.4029 13.4633 15.3424 13.1198 15.478C11.2969 15.3876 8.73765 13.6995 5.90637 10.7185C3.07508 7.73584 1.47334 5.04625 1.38745 3.13206C1.50993 2.76864 2.40226 1.84253 3.25005 1.19777C3.31208 1.15255 3.39002 1.12575 3.4616 1.12575C3.47751 1.12575 3.49023 1.12743 3.50137 1.13078C3.77495 1.54778 5.24308 3.88903 5.50871 4.32445C5.5103 4.37134 5.49599 4.4869 5.41169 4.65437C5.32102 4.83189 5.04585 5.34937 4.65138 6.0762L4.34598 6.64058L4.70069 7.17313C4.96473 7.56837 5.59461 8.42749 6.83687 9.73544C8.0855 11.0501 8.8983 11.7099 9.27209 11.9863L9.77791 12.3597L10.3139 12.0382C10.8325 11.725 11.4608 11.3515 11.6644 11.2377C11.8282 11.1455 11.9395 11.1389 11.9698 11.1389C11.9761 11.1389 11.9793 11.1389 11.9841 11.1405C12.3547 11.385 14.6261 12.9727 15.0269 13.2607C15.0333 13.3043 15.0269 13.393 14.9537 13.5035Z" stroke="white"/>
</svg>
