<svg width="32" height="32" viewBox="0 0 32 32" fill="none" xmlns="http://www.w3.org/2000/svg">
<path d="M28.3077 0H3.69231C2.71305 0 1.77389 0.38901 1.08145 1.08145C0.38901 1.77389 0 2.71305 0 3.69231V28.3077C0 29.287 0.38901 30.2261 1.08145 30.9186C1.77389 31.611 2.71305 32 3.69231 32H28.3077C29.287 32 30.2261 31.611 30.9186 30.9186C31.611 30.2261 32 29.287 32 28.3077V3.69231C32 2.71305 31.611 1.77389 30.9186 1.08145C30.2261 0.38901 29.287 0 28.3077 0ZM6.15385 13.5385H8.61539C8.9418 13.5385 9.25486 13.6681 9.48567 13.8989C9.71648 14.1298 9.84615 14.4428 9.84615 14.7692V17.2308C9.84615 17.5572 9.71648 17.8702 9.48567 18.1011C9.25486 18.3319 8.9418 18.4615 8.61539 18.4615H6.15385C5.82743 18.4615 5.51438 18.3319 5.28356 18.1011C5.05275 17.8702 4.92308 17.5572 4.92308 17.2308V14.7692C4.92308 14.4428 5.05275 14.1298 5.28356 13.8989C5.51438 13.6681 5.82743 13.5385 6.15385 13.5385ZM4.92308 9.84615V7.38462C4.92308 7.0582 5.05275 6.74514 5.28356 6.51433C5.51438 6.28352 5.82743 6.15385 6.15385 6.15385H8.61539C8.9418 6.15385 9.25486 6.28352 9.48567 6.51433C9.71648 6.74514 9.84615 7.0582 9.84615 7.38462V9.84615C9.84615 10.1726 9.71648 10.4856 9.48567 10.7164C9.25486 10.9473 8.9418 11.0769 8.61539 11.0769H6.15385C5.82743 11.0769 5.51438 10.9473 5.28356 10.7164C5.05275 10.4856 4.92308 10.1726 4.92308 9.84615ZM6.15385 20.9231H8.61539C8.9418 20.9231 9.25486 21.0527 9.48567 21.2836C9.71648 21.5144 9.84615 21.8274 9.84615 22.1538V24.6154C9.84615 24.9418 9.71648 25.2549 9.48567 25.4857C9.25486 25.7165 8.9418 25.8462 8.61539 25.8462H6.15385C5.82743 25.8462 5.51438 25.7165 5.28356 25.4857C5.05275 25.2549 4.92308 24.9418 4.92308 24.6154V22.1538C4.92308 21.8274 5.05275 21.5144 5.28356 21.2836C5.51438 21.0527 5.82743 20.9231 6.15385 20.9231ZM13.5385 22.1538H25.8462C26.1726 22.1538 26.4856 22.2835 26.7164 22.5143C26.9473 22.7451 27.0769 23.0582 27.0769 23.3846C27.0769 23.711 26.9473 24.0241 26.7164 24.2549C26.4856 24.4857 26.1726 24.6154 25.8462 24.6154H13.5385C13.212 24.6154 12.899 24.4857 12.6682 24.2549C12.4374 24.0241 12.3077 23.711 12.3077 23.3846C12.3077 23.0582 12.4374 22.7451 12.6682 22.5143C12.899 22.2835 13.212 22.1538 13.5385 22.1538ZM12.3077 16C12.3077 15.6736 12.4374 15.3605 12.6682 15.1297C12.899 14.8989 13.212 14.7692 13.5385 14.7692H25.8462C26.1726 14.7692 26.4856 14.8989 26.7164 15.1297C26.9473 15.3605 27.0769 15.6736 27.0769 16C27.0769 16.3264 26.9473 16.6395 26.7164 16.8703C26.4856 17.1011 26.1726 17.2308 25.8462 17.2308H13.5385C13.212 17.2308 12.899 17.1011 12.6682 16.8703C12.4374 16.6395 12.3077 16.3264 12.3077 16ZM25.8462 9.84615H13.5385C13.212 9.84615 12.899 9.71648 12.6682 9.48567C12.4374 9.25486 12.3077 8.9418 12.3077 8.61539C12.3077 8.28897 12.4374 7.97591 12.6682 7.7451C12.899 7.51429 13.212 7.38462 13.5385 7.38462H25.8462C26.1726 7.38462 26.4856 7.51429 26.7164 7.7451C26.9473 7.97591 27.0769 8.28897 27.0769 8.61539C27.0769 8.9418 26.9473 9.25486 26.7164 9.48567C26.4856 9.71648 26.1726 9.84615 25.8462 9.84615Z" fill="url(#paint0_linear_22_3506)"/>
<defs>
<linearGradient id="paint0_linear_22_3506" x1="30.6591" y1="-8.6565e-08" x2="-6.10791" y2="19.1152" gradientUnits="userSpaceOnUse">
<stop stop-color="#F8D65F"/>
<stop offset="0.507379" stop-color="#FEEA9A"/>
<stop offset="1" stop-color="#FFCD4E"/>
</linearGradient>
</defs>
</svg>
