<svg width="11" height="15" viewBox="0 0 11 15" fill="none" xmlns="http://www.w3.org/2000/svg">
<path d="M5.5 0C4.04131 0 2.64236 0.579381 1.61091 1.61069C0.579463 2.64199 0 4.04074 0 5.49923C0 8.40382 4.9 14.548 5.11 14.8129C5.15685 14.8713 5.21622 14.9184 5.28372 14.9508C5.35122 14.9832 5.42513 15 5.5 15C5.57487 15 5.64878 14.9832 5.71628 14.9508C5.78378 14.9184 5.84315 14.8713 5.89 14.8129C6.1 14.548 11 8.40382 11 5.49923C11 4.04074 10.4205 2.64199 9.38909 1.61069C8.35764 0.579381 6.95869 0 5.5 0ZM5.5 6.99902C5.10444 6.99902 4.71776 6.88173 4.38886 6.662C4.05996 6.44227 3.80362 6.12996 3.65224 5.76456C3.50087 5.39916 3.46126 4.99708 3.53843 4.60917C3.6156 4.22126 3.80608 3.86495 4.08579 3.58528C4.36549 3.30562 4.72186 3.11516 5.10982 3.038C5.49778 2.96084 5.89991 3.00044 6.26537 3.1518C6.63082 3.30315 6.94318 3.55946 7.16294 3.88831C7.3827 4.21716 7.5 4.60379 7.5 4.9993C7.5 5.52965 7.28929 6.03829 6.91421 6.41331C6.53914 6.78833 6.03043 6.99902 5.5 6.99902Z" fill="black" fill-opacity="0.5"/>
</svg>
