<svg width="48" height="33" viewBox="0 0 48 33" fill="none" xmlns="http://www.w3.org/2000/svg">
<path fill-rule="evenodd" clip-rule="evenodd" d="M4.61539 0C2.06638 0 0 2.0332 0 4.54128V28.4587C0 30.9668 2.06638 33 4.61539 33H43.3846C45.9336 33 48 30.9668 48 28.4587V4.54128C48 2.0332 45.9336 0 43.3846 0H4.61539ZM15.5692 25.0679C15.6513 24.6642 15.6923 24.3413 15.6923 24.0991V8.99174C15.6923 8.76972 15.6513 8.45688 15.5692 8.05321C15.4872 7.62936 15.2718 7.21559 14.9231 6.81192C14.5744 6.40826 14.0513 6.06514 13.3538 5.78257C12.6564 5.47982 11.6923 5.32844 10.4615 5.32844C9.23077 5.32844 8.26667 5.47982 7.56923 5.78257C6.8718 6.06514 6.34872 6.40826 6 6.81192C5.65128 7.21559 5.4359 7.62936 5.35385 8.05321C5.27179 8.45688 5.23077 8.76972 5.23077 8.99174V24.0991C5.23077 24.3211 5.27179 24.644 5.35385 25.0679C5.4359 25.4716 5.65128 25.8752 6 26.2789C6.34872 26.6826 6.8718 27.0358 7.56923 27.3385C8.26667 27.6211 9.23077 27.7624 10.4615 27.7624C11.6923 27.7624 12.6564 27.6211 13.3538 27.3385C14.0513 27.0358 14.5744 26.6826 14.9231 26.2789C15.2718 25.8752 15.4872 25.4716 15.5692 25.0679ZM29.2308 24.0991C29.2308 24.3413 29.1897 24.6642 29.1077 25.0679C29.0256 25.4716 28.8103 25.8752 28.4615 26.2789C28.1128 26.6826 27.5897 27.0358 26.8923 27.3385C26.1949 27.6211 25.2308 27.7624 24 27.7624C22.7692 27.7624 21.8051 27.6211 21.1077 27.3385C20.4103 27.0358 19.8872 26.6826 19.5385 26.2789C19.1897 25.8752 18.9744 25.4716 18.8923 25.0679C18.8103 24.644 18.7692 24.3211 18.7692 24.0991V8.99174C18.7692 8.76972 18.8103 8.45688 18.8923 8.05321C18.9744 7.62936 19.1897 7.21559 19.5385 6.81192C19.8872 6.40826 20.4103 6.06514 21.1077 5.78257C21.8051 5.47982 22.7692 5.32844 24 5.32844C25.2308 5.32844 26.1949 5.47982 26.8923 5.78257C27.5897 6.06514 28.1128 6.40826 28.4615 6.81192C28.8103 7.21559 29.0256 7.62936 29.1077 8.05321C29.1897 8.45688 29.2308 8.76972 29.2308 8.99174V24.0991ZM42.6462 25.0679C42.7282 24.644 42.7692 24.3211 42.7692 24.0991V9.02202C42.7692 8.8 42.7282 8.48715 42.6462 8.08349C42.5641 7.65963 42.3487 7.24587 42 6.8422C41.6513 6.43853 41.1282 6.08532 40.4308 5.78257C39.7333 5.47982 38.7692 5.32844 37.5385 5.32844C36.3077 5.32844 35.3436 5.47982 34.6462 5.78257C33.9487 6.06514 33.4256 6.40826 33.0769 6.81192C32.7282 7.21559 32.5128 7.62936 32.4308 8.05321C32.3487 8.45688 32.3077 8.77982 32.3077 9.02202V16.7422C32.3077 17.489 32.5436 18.1853 33.0154 18.8312C33.4872 19.4771 34.3077 19.9615 35.4769 20.2844C35.559 20.3248 35.6205 20.345 35.6615 20.345C36.0308 20.4862 36.4205 20.6275 36.8308 20.7688C37.241 20.9101 37.6103 21.0312 37.9385 21.1321C38.0821 21.1725 38.2462 21.233 38.4308 21.3138C38.6359 21.3743 38.8 21.4248 38.9231 21.4651C39.4564 21.6468 39.7949 21.8991 39.9385 22.222C40.0821 22.545 40.1539 22.8376 40.1539 23.1V23.6147C40.1539 23.7963 40.1231 23.9982 40.0615 24.2202C40.0205 24.422 39.9077 24.6239 39.7231 24.8257C39.559 25.0073 39.3026 25.1688 38.9538 25.3101C38.6256 25.4312 38.1744 25.4917 37.6 25.4917C37.0256 25.4917 36.5538 25.4312 36.1846 25.3101C35.8359 25.1688 35.559 25.0073 35.3538 24.8257C35.1692 24.644 35.0462 24.4523 34.9846 24.2505C34.9231 24.0284 34.8923 23.8367 34.8923 23.6752C34.8923 23.4913 34.7432 23.3422 34.5593 23.3422H33.6H33.0646C32.6466 23.3422 32.3077 23.6811 32.3077 24.0991C32.3077 24.3413 32.3487 24.6642 32.4308 25.0679C32.5128 25.4716 32.7282 25.8752 33.0769 26.2789C33.4256 26.6826 33.9487 27.0358 34.6462 27.3385C35.3436 27.6211 36.3077 27.7624 37.5385 27.7624C38.7692 27.7624 39.7333 27.6211 40.4308 27.3385C41.1282 27.0358 41.6513 26.6826 42 26.2789C42.3487 25.8752 42.5641 25.4716 42.6462 25.0679Z" fill="url(#paint0_linear_22_602)"/>
<defs>
<linearGradient id="paint0_linear_22_602" x1="41.0769" y1="-6.20643" x2="3.44508" y2="35.7258" gradientUnits="userSpaceOnUse">
<stop stop-color="#FFF280"/>
<stop offset="1" stop-color="#FFCD4E"/>
</linearGradient>
</defs>
</svg>
