<svg width="58" height="58" viewBox="0 0 58 58" fill="none" xmlns="http://www.w3.org/2000/svg">
<g clip-path="url(#clip0_23_12)">
<path d="M57.3366 31.008L50.9285 24.5998C50.5036 24.1749 49.9273 23.9362 49.3263 23.9362C48.7254 23.9362 48.1491 24.1749 47.7242 24.5998L28.1422 44.182C26.5556 45.7686 25.4844 47.7703 25.0443 49.9705L23.9803 55.2901C23.8317 56.0329 24.0643 56.8008 24.5999 57.3364C25.029 57.7655 25.6071 58 26.202 58C26.3497 58 26.4986 57.9855 26.6463 57.9559L31.9659 56.892H31.966C34.1662 56.4519 36.1678 55.3807 37.7545 53.7941L57.3366 34.2121C58.2213 33.3273 58.2213 31.8929 57.3366 31.008ZM34.5503 50.5901C33.5984 51.5421 32.3974 52.1848 31.0773 52.4488L29.0901 52.8462L29.4875 50.859C29.7516 49.5388 30.3943 48.3378 31.3463 47.3858L49.3263 29.4058L52.5304 32.6098L34.5503 50.5901Z" fill="black"/>
<path d="M16.9615 53.4688H6.79688C5.54761 53.4688 4.53125 52.4524 4.53125 51.2031V6.79688C4.53125 5.54761 5.54761 4.53125 6.79688 4.53125H27.1875V11.3281C27.1875 15.0759 30.2366 18.125 33.9844 18.125H40.7812V19.6659C40.7812 20.9172 41.7956 21.9315 43.0469 21.9315C44.2982 21.9315 45.3125 20.9172 45.3125 19.6659V15.8593C45.3125 15.246 45.0538 14.6579 44.6478 14.2562L31.0553 0.663602C30.6371 0.245594 30.0516 0 29.4531 0H6.79688C3.04908 0 0 3.04908 0 6.79688V51.2031C0 54.9509 3.04908 58 6.79688 58H16.9615C18.2128 58 19.2271 56.9857 19.2271 55.7344C19.2271 54.4831 18.2127 53.4688 16.9615 53.4688ZM33.9844 13.5938C32.7351 13.5938 31.7188 12.5774 31.7188 11.3281V7.7353L37.5772 13.5938H33.9844Z" fill="black"/>
<path d="M36.25 24.0156C36.25 22.7643 35.2357 21.75 33.9844 21.75H11.3281C10.0768 21.75 9.0625 22.7643 9.0625 24.0156C9.0625 25.2669 10.0768 26.2812 11.3281 26.2812H33.9844C35.2357 26.2812 36.25 25.2669 36.25 24.0156Z" fill="black"/>
<path d="M11.3281 30.8125C10.0768 30.8125 9.0625 31.8268 9.0625 33.0781C9.0625 34.3294 10.0768 35.3438 11.3281 35.3438H29.6346C30.8859 35.3438 31.9002 34.3294 31.9002 33.0781C31.9002 31.8268 30.8859 30.8125 29.6346 30.8125H11.3281Z" fill="black"/>
<path d="M21.0671 39.875H11.3281C10.0768 39.875 9.0625 40.8893 9.0625 42.1406C9.0625 43.3919 10.0768 44.4062 11.3281 44.4062H21.0671C22.3184 44.4062 23.3328 43.3919 23.3328 42.1406C23.3328 40.8893 22.3184 39.875 21.0671 39.875Z" fill="black"/>
</g>
<defs>
<clipPath id="clip0_23_12">
<rect width="58" height="58" fill="white"/>
</clipPath>
</defs>
</svg>
