<svg width="39" height="39" viewBox="0 0 39 39" fill="none" xmlns="http://www.w3.org/2000/svg">
<path d="M36.7837 16.6157C36.1834 16.1731 35.434 15.6203 35.3356 15.254C35.2287 14.8522 35.6103 13.9721 35.9189 13.265C36.4479 12.0509 36.9939 10.7928 36.3869 9.74652C35.7748 8.68677 34.3996 8.53074 33.0719 8.38155C32.3139 8.29674 31.3712 8.19166 31.0896 7.90846C30.8064 7.62526 30.7014 6.68251 30.6166 5.92622C30.4674 4.59853 30.313 3.22505 29.2516 2.6112C28.3292 2.0754 26.9625 2.5434 25.7331 3.0792C25.0549 3.37424 24.346 3.65569 23.7424 3.66253C23.3762 3.56421 22.8251 2.81467 22.3808 2.21441C21.6178 1.17676 20.7513 0 19.4999 0C18.2502 0 17.3821 1.17676 16.6173 2.21449C16.1731 2.81642 15.6219 3.56595 15.1031 3.67954C14.6452 3.67954 13.9432 3.37432 13.265 3.07928C12.0323 2.54348 10.6639 2.08056 9.74825 2.61128C8.68508 3.22513 8.5308 4.59861 8.38153 5.92797C8.29672 6.68593 8.19165 7.62701 7.91012 7.91021C7.62692 8.19166 6.68416 8.29849 5.92788 8.38163C4.59852 8.53082 3.22329 8.68685 2.61119 9.7466C2.00585 10.7928 2.55182 12.0493 3.07919 13.2651C3.38782 13.9722 3.77101 14.8539 3.66252 15.2558C3.5642 15.622 2.81642 16.1748 2.21441 16.6174C1.17675 17.3804 0 18.2486 0 19.5C0 20.7514 1.17675 21.6196 2.21624 22.3843C2.8165 22.8268 3.56595 23.3796 3.66435 23.7459C3.77117 24.1478 3.38965 25.0278 3.08102 25.7349C2.55198 26.949 2.006 28.2072 2.61302 29.2534C3.22512 30.3132 4.60034 30.4692 5.92804 30.6184C6.68599 30.7032 7.62875 30.8083 7.91028 31.0915C8.19348 31.3747 8.29855 32.3174 8.38336 33.0737C8.53255 34.4014 8.68691 35.7749 9.74833 36.3887C10.6657 36.9229 12.0324 36.4565 13.2651 35.9207C13.9433 35.6257 14.6402 35.3256 15.2557 35.3374C15.622 35.4357 16.1731 36.1852 16.6174 36.7855C17.3821 37.8232 18.2486 39 19.5 39C20.7497 39 21.6178 37.8232 22.3826 36.7855C22.8269 36.1836 23.378 35.434 23.8969 35.3188C24.3547 35.3188 25.0567 35.624 25.7349 35.9191C26.9711 36.4549 28.336 36.9195 29.2517 36.3887C30.3148 35.7749 30.4691 34.4014 30.6184 33.072C30.7032 32.3141 30.8083 31.373 31.0898 31.0898C31.373 30.8066 32.3158 30.7015 33.072 30.6167C34.4014 30.4675 35.7766 30.3132 36.3887 29.2517C36.9941 28.2055 36.4481 26.949 35.9207 25.7332C35.6121 25.0261 35.2306 24.1444 35.3374 23.7442C35.4357 23.378 36.1835 22.8252 36.7855 22.3826C37.8232 21.6196 39 20.7514 39 19.5C39 18.2486 37.8231 17.3804 36.7837 16.6157ZM15.2608 22.8913C15.2608 23.2559 15.0268 23.5797 14.6809 23.695C14.5928 23.7255 14.5029 23.7391 14.413 23.7391C14.1519 23.7391 13.8975 23.6171 13.7347 23.4L10.1739 18.6522V22.8913C10.1739 23.3593 9.79403 23.7391 9.32604 23.7391C8.85804 23.7391 8.47818 23.3593 8.47818 22.8913V16.1087C8.47818 15.7441 8.71218 15.4203 9.0581 15.305C9.40234 15.188 9.78553 15.3084 10.0043 15.6L13.5651 20.3478V16.1087C13.5651 15.6407 13.945 15.2609 14.413 15.2609C14.881 15.2609 15.2608 15.6407 15.2608 16.1087V22.8913ZM21.1956 18.6522C21.6636 18.6522 22.0435 19.032 22.0435 19.5C22.0435 19.968 21.6636 20.3478 21.1956 20.3478H18.6522V22.0434H21.1956C21.6636 22.0434 22.0435 22.4233 22.0435 22.8913C22.0435 23.3593 21.6636 23.7391 21.1956 23.7391H17.8043C17.3363 23.7391 16.9564 23.3593 16.9564 22.8913V16.1087C16.9564 15.6407 17.3363 15.2609 17.8043 15.2609H21.1956C21.6636 15.2609 22.0435 15.6407 22.0435 16.1087C22.0435 16.5767 21.6636 16.9566 21.1956 16.9566H18.6522V18.6522H21.1956ZM32.1918 16.3139L30.4962 23.0964C30.4047 23.4627 30.0825 23.7238 29.7061 23.7374C29.6942 23.7374 29.6823 23.7374 29.6721 23.7374C29.3075 23.7374 28.9837 23.5051 28.8667 23.1575L27.9782 20.4852L27.088 23.1592C26.9693 23.5153 26.6759 23.7544 26.2503 23.7375C25.8739 23.7239 25.5517 23.4611 25.4601 23.0965L23.7645 16.3139C23.6526 15.8595 23.9273 15.4 24.3817 15.2864C24.8277 15.171 25.2957 15.4475 25.4093 15.9036L26.3978 19.8612L27.1727 17.5365C27.405 16.8447 28.5513 16.8447 28.7818 17.5365L29.5567 19.8612L30.5453 15.9036C30.6572 15.4474 31.115 15.1727 31.5728 15.2864C32.0308 15.3999 32.3055 15.8611 32.1918 16.3139Z" fill="url(#paint0_linear_22_825)"/>
<defs>
<linearGradient id="paint0_linear_22_825" x1="37.3658" y1="-1.05501e-07" x2="-7.44401" y2="23.2967" gradientUnits="userSpaceOnUse">
<stop stop-color="#F8D65F"/>
<stop offset="0.507379" stop-color="#FEEA9A"/>
<stop offset="1" stop-color="#FFCD4E"/>
</linearGradient>
</defs>
</svg>
