<svg width="32" height="30" viewBox="0 0 32 30" fill="none" xmlns="http://www.w3.org/2000/svg">
<path d="M31.9165 11.3366C31.707 10.7028 31.1323 10.2525 30.4524 10.1926L21.2163 9.37216L17.5641 1.00959C17.2948 0.396717 16.6815 0 16.0001 0C15.3187 0 14.7054 0.396717 14.4361 1.01102L10.7839 9.37216L1.54642 10.1926C0.867692 10.254 0.294437 10.7028 0.0837382 11.3366C-0.12696 11.9705 0.0676245 12.6658 0.581064 13.1041L7.56243 19.0938L5.50379 27.9651C5.35315 28.6173 5.61194 29.2916 6.16518 29.6828C6.46255 29.893 6.81046 30 7.1613 30C7.4638 30 7.76385 29.9202 8.03314 29.7626L16.0001 25.1045L23.9642 29.7626C24.547 30.1056 25.2816 30.0743 25.8336 29.6828C26.3871 29.2904 26.6456 28.6159 26.495 27.9651L24.4364 19.0938L31.4177 13.1053C31.9312 12.6658 32.1272 11.9717 31.9165 11.3366Z" fill="url(#paint0_linear_22_3475)"/>
<defs>
<linearGradient id="paint0_linear_22_3475" x1="30.6591" y1="-8.11547e-08" x2="-5.06072" y2="19.8088" gradientUnits="userSpaceOnUse">
<stop stop-color="#F8D65F"/>
<stop offset="0.507379" stop-color="#FEEA9A"/>
<stop offset="1" stop-color="#FFCD4E"/>
</linearGradient>
</defs>
</svg>
