<svg width="57" height="57" viewBox="0 0 57 57" fill="none" xmlns="http://www.w3.org/2000/svg">
<path d="M52.1906 0H4.80938C2.15754 0 0 2.15754 0 4.80938V15.6715C0 18.3234 2.15754 20.4809 4.80938 20.4809H6.68414C6.68414 31.6585 6.68459 30.9925 6.68459 31.1449C6.16001 30.9593 5.59691 30.8578 5.01199 30.8578C2.24749 30.8579 0 33.0934 0 35.8699C0 35.8707 0.000111328 35.8714 0.000111328 35.872V43.9429C0.000111328 51.1427 5.85742 57 13.0571 57H24.0567C31.2563 57 37.1136 51.1427 37.1136 43.943C37.1136 35.1525 37.1155 33.8883 37.111 33.807C36.9613 31.0534 34.6905 28.893 31.93 28.893C31.168 28.893 30.4446 29.0598 29.7921 29.3566C28.8487 26.6774 25.8551 25.3139 23.2183 26.3632C22.4633 23.5714 19.469 21.9711 16.708 22.9515V20.481H52.1906C54.8425 20.481 57 18.3235 57 15.6717V4.80938C57 2.15754 54.8425 0 52.1906 0V0ZM3.33984 15.6717V4.80938C3.33984 3.99913 3.99913 3.33984 4.80938 3.33984H34.9668V17.1412H16.6913C16.4893 14.5253 14.2815 12.4621 11.5771 12.522C9.03294 12.5811 6.93697 14.6123 6.70618 17.1412H4.80938C3.99913 17.1412 3.33984 16.4819 3.33984 15.6717ZM18.3802 26.0045C19.3027 26.0045 20.0523 26.7545 20.0523 27.6807V31.027C20.0523 31.0299 20.0528 31.0327 20.0528 31.0356V36.2542C20.0528 37.1765 20.8004 37.9241 21.7227 37.9241C22.6449 37.9241 23.3926 37.1765 23.3926 36.2542V31.0185C23.3973 30.0981 24.1451 29.3508 25.0643 29.3508C25.9868 29.3508 26.7365 30.1009 26.7365 31.0271C26.7365 31.0364 26.7369 31.1536 26.7369 36.2543C26.7369 37.1766 27.4846 37.9243 28.4068 37.9243C29.3291 37.9243 30.0767 37.1766 30.0767 36.2543C30.0767 36.2543 30.0822 35.5172 30.0822 34.0889C30.0822 33.0657 30.9111 32.2331 31.9302 32.2331C32.9015 32.2331 33.7079 32.9853 33.7741 33.9664V43.9432C33.7741 49.3013 29.415 53.6604 24.057 53.6604H13.0575C7.69934 53.6604 3.34029 49.3013 3.34029 43.9432V35.8699C3.34029 35.8696 3.34029 35.8691 3.34029 35.8688C3.34085 34.9362 4.09621 34.1977 5.01233 34.1977C5.93891 34.1977 6.68459 34.9455 6.68459 35.8699V41.6979C6.68459 42.6202 7.43227 43.3679 8.35451 43.3679C9.27664 43.3679 10.0249 42.62 10.0249 41.6975C10.0249 41.0432 10.0244 18.2601 10.0244 17.6047C10.0244 16.664 10.7559 15.8817 11.6552 15.8609C12.6 15.8379 13.3686 16.5992 13.3686 17.5366C13.3686 18.2967 13.3691 35.3663 13.3691 36.2542C13.3691 37.1765 14.1167 37.9241 15.039 37.9241C15.9612 37.9241 16.7089 37.1765 16.7089 36.2542V27.6722C16.7131 26.7517 17.4609 26.0045 18.3802 26.0045ZM53.6602 15.6717C53.6602 16.4819 53.0009 17.1412 52.1906 17.1412H38.3067V3.33984H52.1906C53.0009 3.33984 53.6602 3.99913 53.6602 4.80938V15.6717Z" fill="black"/>
<path d="M48.3666 6.67658L44.7808 10.2625L43.6002 9.08193C42.9482 8.42988 41.8908 8.42988 41.2386 9.08193C40.5865 9.73398 40.5865 10.7914 41.2386 11.4435L43.6 13.8049C44.2522 14.4571 45.3095 14.4571 45.9616 13.8049L50.7282 9.03829C51.3804 8.38624 51.3804 7.32885 50.7282 6.67669C50.0762 6.02442 49.0188 6.02442 48.3666 6.67658Z" fill="black"/>
<path d="M8.34961 10.0195H29.957C30.8792 10.0195 31.6269 9.27185 31.6269 8.34961C31.6269 7.42737 30.8792 6.67969 29.957 6.67969H8.34961C7.42737 6.67969 6.67969 7.42737 6.67969 8.34961C6.67969 9.27185 7.42737 10.0195 8.34961 10.0195Z" fill="black"/>
</svg>
