<svg width="32" height="32" viewBox="0 0 32 32" fill="none" xmlns="http://www.w3.org/2000/svg">
<path d="M25.8462 0H6.15385C2.76062 0 0 2.76062 0 6.15385V25.8462C0 29.2394 2.76062 32 6.15385 32H25.8462C29.2394 32 32 29.2394 32 25.8462V6.15385C32 2.76062 29.2394 0 25.8462 0ZM16.0037 5.93969C18.7188 5.93969 20.9268 8.14769 20.9268 10.8628C20.9268 13.5778 18.7188 15.7858 16.0037 15.7858C13.2886 15.7858 11.0806 13.5778 11.0806 10.8628C11.0806 8.14769 13.2886 5.93969 16.0037 5.93969ZM23.3846 26.4886H8.61539C7.93477 26.4886 7.38462 25.9372 7.38462 25.2578C7.38462 20.5071 11.2505 16.6425 16 16.6425C20.7495 16.6425 24.6154 20.5071 24.6154 25.2578C24.6154 25.9372 24.0652 26.4886 23.3846 26.4886Z" fill="url(#paint0_linear_23_51)"/>
<defs>
<linearGradient id="paint0_linear_23_51" x1="30.6591" y1="-8.6565e-08" x2="-6.10791" y2="19.1152" gradientUnits="userSpaceOnUse">
<stop stop-color="#F8D65F"/>
<stop offset="0.507379" stop-color="#FEEA9A"/>
<stop offset="1" stop-color="#FFCD4E"/>
</linearGradient>
</defs>
</svg>
