<svg width="63" height="54" viewBox="0 0 63 54" fill="none" xmlns="http://www.w3.org/2000/svg">
<path d="M36.1266 23.9038C34.4274 23.9038 33.0449 25.2928 33.0449 27.0001C33.0449 28.7074 34.4274 30.0963 36.1266 30.0963C37.8259 30.0963 39.2083 28.7074 39.2083 27.0001C39.2083 25.2928 37.8259 23.9038 36.1266 23.9038Z" fill="black"/>
<path d="M38.1679 14.5184V20.1018C39.7505 20.5753 41.1052 21.584 42.0233 22.919L47.3089 21.1934C45.5113 17.7131 42.151 15.1735 38.1679 14.5184Z" fill="black"/>
<path d="M48.5733 25.0931L43.2861 26.8192C43.2876 26.8795 43.2908 26.9395 43.2908 27.0001C43.2908 28.6439 42.7383 30.1597 41.8118 31.3729L45.0762 35.887C47.3254 33.6009 48.7163 30.4608 48.7163 27.0001C48.7163 26.352 48.6674 25.7152 48.5733 25.0931Z" fill="black"/>
<path d="M36.1266 0H11.2944C10.1671 0 9.25327 0.91818 9.25327 2.05073C9.25327 3.18328 10.1671 4.10146 11.2944 4.10146H21.9042C19.6658 5.50994 17.6474 7.23973 15.9143 9.22704H2.04111C0.913871 9.22717 0 10.1455 0 11.278C0 12.4106 0.913871 13.3287 2.04111 13.3287H12.9615C10.6067 17.3412 9.25314 22.0145 9.25314 27.0001C9.25314 32.8011 11.084 38.1807 14.1948 42.5866H8.4035C7.27627 42.5866 6.3624 43.5048 6.3624 44.6373C6.3624 45.7699 7.27627 46.6881 8.4035 46.6881H17.7574C19.0301 47.8875 20.4187 48.9638 21.9042 49.8985H2.25164C1.1244 49.8985 0.210534 50.8167 0.210534 51.9493C0.210534 53.0818 1.1244 54 2.25164 54H36.1266C50.9448 54 63 41.8877 63 26.9999C63 12.1121 50.9447 0 36.1266 0ZM46.0415 40.4581C46.004 40.49 45.9667 40.5222 45.9262 40.5515C45.8807 40.5847 45.8341 40.6157 45.7869 40.6447C43.0597 42.5993 39.7245 43.7506 36.1266 43.7506C32.5287 43.7506 29.1937 42.5993 26.4663 40.6447C26.4191 40.6157 26.3726 40.5847 26.327 40.5515C26.2867 40.5219 26.2494 40.4898 26.2117 40.4581C22.1149 37.4033 19.4546 32.5081 19.4546 27.0001C19.4546 17.7637 26.9337 10.2494 36.1266 10.2494C45.3196 10.2494 52.7987 17.7637 52.7987 27.0001C52.7987 32.5083 50.1385 37.4033 46.0415 40.4581Z" fill="black"/>
<path d="M24.9444 21.1933L30.2298 22.9189C31.1481 21.584 32.5028 20.5753 34.0854 20.1017V14.5183C30.1024 15.1735 26.7421 17.7129 24.9444 21.1933Z" fill="black"/>
<path d="M38.5112 33.7866C37.7648 34.0521 36.9626 34.1981 36.1266 34.1981C35.2909 34.1981 34.4885 34.0521 33.7421 33.7866L30.4769 38.3017C32.1769 39.163 34.0962 39.6491 36.1266 39.6491C38.157 39.6491 40.0763 39.1631 41.7763 38.3017L38.5112 33.7866Z" fill="black"/>
<path d="M28.9626 27.0001C28.9626 26.9395 28.9655 26.8795 28.967 26.8192L23.6798 25.0931C23.5858 25.7152 23.5368 26.352 23.5368 27.0001C23.5368 30.4609 24.9279 33.601 27.177 35.8873L30.4415 31.3729C29.5151 30.1599 28.9626 28.6439 28.9626 27.0001Z" fill="black"/>
</svg>
