<svg width="15" height="19" viewBox="0 0 15 19" fill="none" xmlns="http://www.w3.org/2000/svg">
<path d="M1.57828 18.4918C0.933951 18.4918 0.411621 17.9695 0.411621 17.3252L0.411621 1.65859C0.411621 1.01427 0.933951 0.491938 1.57828 0.491938C2.2226 0.491938 2.74494 1.01427 2.74494 1.65859L2.74494 17.3252C2.74494 17.9695 2.2226 18.4918 1.57828 18.4918Z" fill="white"/>
<path d="M1.57828 18.4918C0.933951 18.4918 0.411621 17.9695 0.411621 17.3252L0.411621 1.65859C0.411621 1.01427 0.933951 0.491938 1.57828 0.491938C2.2226 0.491938 2.74494 1.01427 2.74494 1.65859L2.74494 17.3252C2.74494 17.9695 2.2226 18.4918 1.57828 18.4918Z" fill="white"/>
<path d="M1.57828 18.4918C0.933951 18.4918 0.411621 17.9695 0.411621 17.3252L0.411621 1.65859C0.411621 1.01427 0.933951 0.491938 1.57828 0.491938C2.2226 0.491938 2.74494 1.01427 2.74494 1.65859L2.74494 17.3252C2.74494 17.9695 2.2226 18.4918 1.57828 18.4918Z" fill="white"/>
<path d="M7.41177 18.4919C6.76745 18.4919 6.24512 17.9696 6.24512 17.3253L6.24512 1.65872C6.24512 1.01439 6.76745 0.49206 7.41177 0.49206C8.0561 0.49206 8.57843 1.01439 8.57843 1.65872V17.3253C8.57843 17.9696 8.0561 18.4919 7.41177 18.4919Z" fill="white"/>
<path d="M7.41177 18.4919C6.76745 18.4919 6.24512 17.9696 6.24512 17.3253L6.24512 1.65872C6.24512 1.01439 6.76745 0.49206 7.41177 0.49206C8.0561 0.49206 8.57843 1.01439 8.57843 1.65872V17.3253C8.57843 17.9696 8.0561 18.4919 7.41177 18.4919Z" fill="white"/>
<path d="M7.41177 18.4919C6.76745 18.4919 6.24512 17.9696 6.24512 17.3253L6.24512 1.65872C6.24512 1.01439 6.76745 0.49206 7.41177 0.49206C8.0561 0.49206 8.57843 1.01439 8.57843 1.65872V17.3253C8.57843 17.9696 8.0561 18.4919 7.41177 18.4919Z" fill="white"/>
<path d="M13.245 18.4919C12.6007 18.4919 12.0784 17.9696 12.0784 17.3253L12.0784 1.65872C12.0784 1.01439 12.6007 0.49206 13.245 0.49206C13.8894 0.49206 14.4117 1.01439 14.4117 1.65872V17.3253C14.4117 17.9696 13.8894 18.4919 13.245 18.4919Z" fill="white"/>
<path d="M13.245 18.4919C12.6007 18.4919 12.0784 17.9696 12.0784 17.3253L12.0784 1.65872C12.0784 1.01439 12.6007 0.49206 13.245 0.49206C13.8894 0.49206 14.4117 1.01439 14.4117 1.65872V17.3253C14.4117 17.9696 13.8894 18.4919 13.245 18.4919Z" fill="white"/>
<path d="M13.245 18.4919C12.6007 18.4919 12.0784 17.9696 12.0784 17.3253L12.0784 1.65872C12.0784 1.01439 12.6007 0.49206 13.245 0.49206C13.8894 0.49206 14.4117 1.01439 14.4117 1.65872V17.3253C14.4117 17.9696 13.8894 18.4919 13.245 18.4919Z" fill="white"/>
</svg>
